<svg xmlns="http://www.w3.org/2000/svg" id="Layer_1" data-name="Layer 1" viewBox="32.56 152.94 497.56 69.74">
  <defs>
    <style>
      .cls-1 {
        stroke-width: 0px;
      }

      .cls-2 {
        font-family: Bauhaus93, 'Bauhaus 93';
        font-size: 52.32px;
      }
    </style>
  </defs>
  <path class="cls-1" d="m82.41,191.39c.34-.12.7-.22,1.05-.33.3-.09.58-.2.88-.29-.66.19-1.3.39-1.93.61Z"/>
  <path class="cls-1" d="m32.56,220.75c.12.34.22.69.32,1.04.09.3.2.58.29.89-.19-.66-.39-1.3-.61-1.93Z"/>
  <path class="cls-1" d="m151.77,191.39c.34-.12.7-.22,1.05-.33.3-.09.58-.2.88-.29-.66.19-1.3.39-1.93.61Z"/>
  <path class="cls-1" d="m101.93,220.75c.12.34.22.69.32,1.04.09.3.2.58.29.89-.19-.66-.39-1.3-.61-1.93Z"/>
  <g>
    <g>
      <path class="cls-1" d="m151.36,161.99c.59,16.36,19.91,15.22,20.26,24.59,2.02-9.27-16.3-10.75-20.26-24.59Z"/>
      <path class="cls-1" d="m171.62,186.58h0s8.11-9.85.52-22.52c-7.59-12.67-15.57-7.78-15.57-7.78,9.92,9.63,13.16,21.02,13.16,21.02,0,0-19.06-35.22-34.49-20.97,10.64-2.72,16.12,5.65,16.12,5.65.11,3.07.88,5.52,2.06,7.54-1.18-2.02-1.95-4.47-2.06-7.54,3.96,13.84,22.27,15.33,20.26,24.59Z"/>
      <path class="cls-1" d="m172.26,184.7c1.08-1.86,2.61-5.27,2.61-9.61,0-3.63-1.07-7.26-3.17-10.77-.22-.37-.45-.73-.68-1.08-2.33.51-4.28,1.58-5.88,3.04,3.65,5.99,5.06,10.8,5.08,10.88.38,1.6.35,2.73.35,2.73,0,0-1.16-2.12-1.28-2.35-.05-.1-2.37-4.33-5.99-9.22-1.08,1.45-1.95,3.11-2.64,4.91,1.17.87,2.37,1.68,3.52,2.46,4.16,2.81,7.77,5.25,8.07,9Z"/>
    </g>
    <g>
      <path class="cls-1" d="m171.21,189.66c-16.36.59-15.22,19.91-24.59,20.26,9.27,2.02,10.75-16.3,24.59-20.26Z"/>
      <path class="cls-1" d="m146.61,209.91h0s9.85,8.11,22.52.52c12.67-7.59,7.78-15.57,7.78-15.57-9.63,9.92-21.02,13.16-21.02,13.16,0,0,35.22-19.06,20.97-34.49,2.72,10.64-5.65,16.12-5.65,16.12-3.07.11-5.52.88-7.54,2.06,2.02-1.18,4.47-1.95,7.54-2.06-13.84,3.96-15.33,22.27-24.59,20.26Z"/>
      <path class="cls-1" d="m148.49,210.56c1.86,1.08,5.27,2.61,9.61,2.61,3.63,0,7.26-1.07,10.77-3.17.37-.22.73-.45,1.08-.68-.51-2.33-1.58-4.28-3.04-5.88-5.99,3.65-10.8,5.06-10.88,5.08-1.6.38-2.73.35-2.73.35,0,0,2.12-1.16,2.35-1.28.1-.05,4.33-2.37,9.22-5.99-1.45-1.08-3.11-1.95-4.91-2.64-.87,1.17-1.68,2.37-2.46,3.52-2.81,4.16-5.25,7.77-9,8.07Z"/>
    </g>
    <g>
      <path class="cls-1" d="m143.54,209.5c-.59-16.36-19.91-15.22-20.26-24.59-2.02,9.27,16.3,10.75,20.26,24.59Z"/>
      <path class="cls-1" d="m123.28,184.91h0s-8.11,9.85-.52,22.52c7.59,12.67,15.57,7.78,15.57,7.78-9.92-9.63-13.16-21.02-13.16-21.02,0,0,19.06,35.22,34.49,20.97-10.64,2.72-16.12-5.65-16.12-5.65-.11-3.07-.88-5.52-2.06-7.54,1.18,2.02,1.95,4.47,2.06,7.54-3.96-13.84-22.27-15.33-20.26-24.59Z"/>
      <path class="cls-1" d="m122.64,186.79c-1.08,1.86-2.61,5.27-2.61,9.61,0,3.63,1.07,7.26,3.17,10.77.22.37.45.73.68,1.08,2.33-.51,4.28-1.58,5.88-3.04-3.65-5.99-5.06-10.8-5.08-10.88-.38-1.6-.35-2.73-.35-2.73,0,0,1.16,2.12,1.28,2.35.05.1,2.37,4.33,5.99,9.22,1.08-1.45,1.95-3.11,2.64-4.91-1.17-.87-2.37-1.68-3.52-2.46-4.16-2.81-7.77-5.25-8.07-9Z"/>
    </g>
    <g>
      <path class="cls-1" d="m123.69,181.83c16.36-.59,15.22-19.91,24.59-20.26-9.27-2.02-10.75,16.3-24.59,20.26Z"/>
      <path class="cls-1" d="m148.29,161.57h0s-9.85-8.11-22.52-.52c-12.67,7.59-7.78,15.57-7.78,15.57,9.63-9.92,21.02-13.16,21.02-13.16,0,0-35.22,19.06-20.97,34.49-2.72-10.64,5.65-16.12,5.65-16.12,3.07-.11,5.52-.88,7.54-2.06-2.02,1.18-4.47,1.95-7.54,2.06,13.84-3.96,15.33-22.27,24.59-20.26Z"/>
      <path class="cls-1" d="m146.41,160.93c-1.86-1.08-5.27-2.61-9.61-2.61-3.63,0-7.26,1.07-10.77,3.17-.37.22-.73.45-1.08.68.51,2.33,1.58,4.28,3.04,5.88,5.99-3.65,10.8-5.06,10.88-5.08,1.6-.38,2.73-.35,2.73-.35,0,0-2.12,1.16-2.35,1.28-.1.05-4.33,2.37-9.22,5.99,1.45,1.08,3.11,1.95,4.91,2.64.87-1.17,1.68-2.37,2.46-3.52,2.81-4.16,5.25-7.77,9-8.07Z"/>
    </g>
  </g>
  <text class="cls-2" transform="translate(189.29 203.64) scale(.96 1)"><tspan x="0" y="0">IMPRENDITORE</tspan></text>
</svg>